<?xml version="1.0" encoding="UTF-8"?>
<svg id="Layer_2" data-name="Layer 2" xmlns="http://www.w3.org/2000/svg" viewBox="0 0 26.94 42.03">
  <defs>
    <style>
      .cls-1 {
        fill: #6d3d15;
      }
    </style>
  </defs>
  <g id="Layer_1-2" data-name="Layer 1">
    <g>
      <path class="cls-1" d="M5.23,0C2.35,0,0,2.35,0,5.23s2.35,5.23,5.23,5.23,5.23-2.35,5.23-5.23S8.12,0,5.23,0Z"/>
      <path class="cls-1" d="M5.23,15.78c-2.88,0-5.23,2.35-5.23,5.23s2.35,5.23,5.23,5.23,5.23-2.35,5.23-5.23-2.35-5.23-5.23-5.23Z"/>
      <path class="cls-1" d="M21.7,15.78c-2.88,0-5.23,2.35-5.23,5.23s2.35,5.23,5.23,5.23,5.23-2.35,5.23-5.23-2.35-5.23-5.23-5.23Z"/>
      <path class="cls-1" d="M21.7,31.57c-2.88,0-5.23,2.35-5.23,5.23s2.35,5.23,5.23,5.23,5.23-2.35,5.23-5.23-2.35-5.23-5.23-5.23Z"/>
      <path class="cls-1" d="M21.7,10.46c2.88,0,5.23-2.35,5.23-5.23S24.59,0,21.7,0s-5.23,2.35-5.23,5.23,2.35,5.23,5.23,5.23Z"/>
      <path class="cls-1" d="M5.23,31.57c-2.88,0-5.23,2.35-5.23,5.23s2.35,5.23,5.23,5.23,5.23-2.35,5.23-5.23-2.35-5.23-5.23-5.23Z"/>
    </g>
  </g>
</svg>
